<svg width="36" height="36" viewBox="0 0 36 36" fill="none" xmlns="http://www.w3.org/2000/svg">
<path d="M33.03 25.2299L28.335 14.2499C27.48 12.2399 26.205 11.0999 24.75 11.0249C23.31 10.9499 21.915 11.9549 20.85 13.8749L18 18.9899C17.4 20.0699 16.545 20.7149 15.615 20.7899C14.67 20.8799 13.725 20.3849 12.96 19.4099L12.63 18.9899C11.565 17.6549 10.245 17.0099 8.89502 17.1449C7.54502 17.2799 6.39002 18.2099 5.62502 19.7249L3.03002 24.8999C2.10002 26.7749 2.19002 28.9499 3.28502 30.7199C4.38002 32.4899 6.28502 33.5549 8.37002 33.5549H27.51C29.52 33.5549 31.395 32.5499 32.505 30.8699C33.645 29.1899 33.825 27.0749 33.03 25.2299Z" fill="#00A859" fill-opacity="0.7"/>
<path d="M10.455 12.5702C13.2551 12.5702 15.525 10.3003 15.525 7.50018C15.525 4.70009 13.2551 2.43018 10.455 2.43018C7.65493 2.43018 5.38501 4.70009 5.38501 7.50018C5.38501 10.3003 7.65493 12.5702 10.455 12.5702Z" fill="#00A859" fill-opacity="0.7"/>
</svg>
