<svg width="20" height="21" viewBox="0 0 20 21" fill="none" xmlns="http://www.w3.org/2000/svg">
<path d="M9.99999 2.16675C5.40832 2.16675 1.66666 5.90841 1.66666 10.5001C1.66666 15.0917 5.40832 18.8334 9.99999 18.8334C14.5917 18.8334 18.3333 15.0917 18.3333 10.5001C18.3333 5.90841 14.5917 2.16675 9.99999 2.16675ZM13.3333 11.1251H10.625V13.8334C10.625 14.1751 10.3417 14.4584 9.99999 14.4584C9.65832 14.4584 9.37499 14.1751 9.37499 13.8334V11.1251H6.66666C6.32499 11.1251 6.04166 10.8417 6.04166 10.5001C6.04166 10.1584 6.32499 9.87508 6.66666 9.87508H9.37499V7.16675C9.37499 6.82508 9.65832 6.54175 9.99999 6.54175C10.3417 6.54175 10.625 6.82508 10.625 7.16675V9.87508H13.3333C13.675 9.87508 13.9583 10.1584 13.9583 10.5001C13.9583 10.8417 13.675 11.1251 13.3333 11.1251Z" fill="#00A859"/>
</svg>
