<svg width="20" height="21" viewBox="0 0 20 21" fill="none" xmlns="http://www.w3.org/2000/svg">
<path d="M16.725 7.99961C16.725 8.01729 16.7218 8.03282 16.7164 8.04614C16.7113 8.05899 16.7028 8.07304 16.6881 8.08772L11.2548 13.5211C10.5667 14.2091 9.43331 14.2091 8.74524 13.5211L3.3119 8.08772L2.96556 8.43406L3.3119 8.08772C3.29038 8.0662 3.2771 8.03546 3.2771 7.99961C3.2771 7.96376 3.29038 7.93302 3.3119 7.9115C3.33343 7.88997 3.36417 7.87669 3.40002 7.87669C3.43587 7.87669 3.4666 7.88997 3.48813 7.9115L8.92146 13.3448C9.51673 13.9401 10.4833 13.9401 11.0786 13.3448L16.5119 7.9115C16.5334 7.88997 16.5642 7.87669 16.6 7.87669C16.633 7.87669 16.6616 7.88792 16.6827 7.90646C16.7171 7.94637 16.725 7.98248 16.725 7.99961Z" fill="#00A859" stroke="#00A859"/>
</svg>
