<svg width="24" height="24" viewBox="0 0 24 24" fill="none" xmlns="http://www.w3.org/2000/svg">
<path d="M22 21.5H2C1.86614 21.5 1.75 21.3839 1.75 21.25C1.75 21.1161 1.86614 21 2 21H22C22.1339 21 22.25 21.1161 22.25 21.25C22.25 21.3839 22.1339 21.5 22 21.5Z" fill="#00A859"/>
<path d="M22 21.5H2C1.86614 21.5 1.75 21.3839 1.75 21.25C1.75 21.1161 1.86614 21 2 21H22C22.1339 21 22.25 21.1161 22.25 21.25C22.25 21.3839 22.1339 21.5 22 21.5Z" stroke="#6C727F"/>
<path d="M22 21.5H2C1.86614 21.5 1.75 21.3839 1.75 21.25C1.75 21.1161 1.86614 21 2 21H22C22.1339 21 22.25 21.1161 22.25 21.25C22.25 21.3839 22.1339 21.5 22 21.5Z" stroke="#00A859"/>
<path d="M22 21.5H2C1.86614 21.5 1.75 21.3839 1.75 21.25C1.75 21.1161 1.86614 21 2 21H22C22.1339 21 22.25 21.1161 22.25 21.25C22.25 21.3839 22.1339 21.5 22 21.5Z" stroke="#00A859"/>
<path d="M22 21.5H2C1.86614 21.5 1.75 21.3839 1.75 21.25C1.75 21.1161 1.86614 21 2 21H22C22.1339 21 22.25 21.1161 22.25 21.25C22.25 21.3839 22.1339 21.5 22 21.5Z" stroke="#00A859"/>
<path d="M22 21.5H2C1.86614 21.5 1.75 21.3839 1.75 21.25C1.75 21.1161 1.86614 21 2 21H22C22.1339 21 22.25 21.1161 22.25 21.25C22.25 21.3839 22.1339 21.5 22 21.5Z" stroke="#00A859"/>
<path d="M13.75 21.5H10.25V4C10.25 3.50568 10.3531 3.13335 10.5388 2.894C10.7067 2.67762 10.9963 2.5 11.55 2.5H12.45C13.0037 2.5 13.2933 2.67762 13.4612 2.894C13.6469 3.13335 13.75 3.50568 13.75 4V21.5Z" fill="#00A859"/>
<path d="M13.75 21.5H10.25V4C10.25 3.50568 10.3531 3.13335 10.5388 2.894C10.7067 2.67762 10.9963 2.5 11.55 2.5H12.45C13.0037 2.5 13.2933 2.67762 13.4612 2.894C13.6469 3.13335 13.75 3.50568 13.75 4V21.5Z" stroke="#6C727F"/>
<path d="M13.75 21.5H10.25V4C10.25 3.50568 10.3531 3.13335 10.5388 2.894C10.7067 2.67762 10.9963 2.5 11.55 2.5H12.45C13.0037 2.5 13.2933 2.67762 13.4612 2.894C13.6469 3.13335 13.75 3.50568 13.75 4V21.5Z" stroke="#00A859"/>
<path d="M13.75 21.5H10.25V4C10.25 3.50568 10.3531 3.13335 10.5388 2.894C10.7067 2.67762 10.9963 2.5 11.55 2.5H12.45C13.0037 2.5 13.2933 2.67762 13.4612 2.894C13.6469 3.13335 13.75 3.50568 13.75 4V21.5Z" stroke="#00A859"/>
<path d="M13.75 21.5H10.25V4C10.25 3.50568 10.3531 3.13335 10.5388 2.894C10.7067 2.67762 10.9963 2.5 11.55 2.5H12.45C13.0037 2.5 13.2933 2.67762 13.4612 2.894C13.6469 3.13335 13.75 3.50568 13.75 4V21.5Z" stroke="#00A859"/>
<path d="M13.75 21.5H10.25V4C10.25 3.50568 10.3531 3.13335 10.5388 2.894C10.7067 2.67762 10.9963 2.5 11.55 2.5H12.45C13.0037 2.5 13.2933 2.67762 13.4612 2.894C13.6469 3.13335 13.75 3.50568 13.75 4V21.5Z" stroke="#00A859"/>
<path d="M3 10V22H7V10C7 8.9 6.6 8 5.4 8H4.6C3.4 8 3 8.9 3 10Z" fill="#00A859"/>
<path d="M17 15V22H21V15C21 13.9 20.6 13 19.4 13H18.6C17.4 13 17 13.9 17 15Z" fill="#292D32"/>
</svg>
