<svg width="32" height="32" viewBox="0 0 32 32" fill="none" xmlns="http://www.w3.org/2000/svg">
<path d="M5.49317 25.0511L5.49067 25.0508L5.07734 24.9975L5.07474 24.9971C4.02963 24.8678 3.16669 23.892 3.16669 22.8534V7.00002C3.16669 5.67617 4.23616 4.60669 5.56002 4.60669H5.63187C8.0602 4.81816 11.673 5.96445 14.0546 7.25268C14.3359 7.40643 14.5 7.67929 14.5 8.00002V26.5467C14.5 27.1464 13.8941 27.544 13.366 27.3253C10.8572 26.2733 7.73422 25.3518 5.49317 25.0511Z" fill="#27C200"/>
<path d="M5.49317 25.0511L5.49067 25.0508L5.07734 24.9975L5.07474 24.9971C4.02963 24.8678 3.16669 23.892 3.16669 22.8534V7.00002C3.16669 5.67617 4.23616 4.60669 5.56002 4.60669H5.63187C8.0602 4.81816 11.673 5.96445 14.0546 7.25268C14.3359 7.40643 14.5 7.67929 14.5 8.00002V26.5467C14.5 27.1464 13.8941 27.544 13.366 27.3253C10.8572 26.2733 7.73422 25.3518 5.49317 25.0511Z" stroke="#6C727F"/>
<path d="M5.49317 25.0511L5.49067 25.0508L5.07734 24.9975L5.07474 24.9971C4.02963 24.8678 3.16669 23.892 3.16669 22.8534V7.00002C3.16669 5.67617 4.23616 4.60669 5.56002 4.60669H5.63187C8.0602 4.81816 11.673 5.96445 14.0546 7.25268C14.3359 7.40643 14.5 7.67929 14.5 8.00002V26.5467C14.5 27.1464 13.8941 27.544 13.366 27.3253C10.8572 26.2733 7.73422 25.3518 5.49317 25.0511Z" stroke="#27C200"/>
<path d="M5.49317 25.0511L5.49067 25.0508L5.07734 24.9975L5.07474 24.9971C4.02963 24.8678 3.16669 23.892 3.16669 22.8534V7.00002C3.16669 5.67617 4.23616 4.60669 5.56002 4.60669H5.63187C8.0602 4.81816 11.673 5.96445 14.0546 7.25268C14.3359 7.40643 14.5 7.67929 14.5 8.00002V26.5467C14.5 27.1464 13.8941 27.544 13.366 27.3253C10.8572 26.2733 7.73422 25.3518 5.49317 25.0511Z" stroke="#27C200"/>
<path d="M5.49317 25.0511L5.49067 25.0508L5.07734 24.9975L5.07474 24.9971C4.02963 24.8678 3.16669 23.892 3.16669 22.8534V7.00002C3.16669 5.67617 4.23616 4.60669 5.56002 4.60669H5.63187C8.0602 4.81816 11.673 5.96445 14.0546 7.25268C14.3359 7.40643 14.5 7.67929 14.5 8.00002V26.5467C14.5 27.1464 13.8941 27.544 13.366 27.3253C10.8572 26.2733 7.73422 25.3518 5.49317 25.0511Z" stroke="#27C200"/>
<path d="M5.49317 25.0511L5.49067 25.0508L5.07734 24.9975L5.07474 24.9971C4.02963 24.8678 3.16669 23.892 3.16669 22.8534V7.00002C3.16669 5.67617 4.23616 4.60669 5.56002 4.60669H5.63187C8.0602 4.81816 11.673 5.96445 14.0546 7.25268C14.3359 7.40643 14.5 7.67929 14.5 8.00002V26.5467C14.5 27.1464 13.8941 27.544 13.366 27.3253C10.8572 26.2733 7.73422 25.3518 5.49317 25.0511Z" stroke="#27C200"/>
<path d="M26.44 4.10669H26.36C26.04 4.13336 25.6933 4.17336 25.3333 4.24002C23.6933 4.50669 21.7467 5.06669 20 5.76002C19.1733 6.09336 18.4 6.45336 17.72 6.81336C17.28 7.05336 17 7.50669 17 8.00002V26.5467C17 27.4934 17.96 28.1467 18.8267 27.7867C21.3067 26.7467 24.3867 25.84 26.5733 25.5467L26.9867 25.4934C28.28 25.3334 29.3333 24.1467 29.3333 22.8534V7.00002C29.3333 5.40002 28.04 4.10669 26.44 4.10669ZM25.6933 18.3067C25.6933 18.8267 25.32 19.0534 24.8667 18.8L23.4533 18.0134C23.3067 17.9334 23.0667 17.9334 22.9067 18.0134L21.4933 18.8C21.04 19.0534 20.6667 18.8267 20.6667 18.3067V14.2134C20.6667 13.6 21.1733 13.0934 21.7867 13.0934H24.5867C25.2 13.0934 25.7067 13.6 25.7067 14.2134V18.3067H25.6933Z" fill="#27C200"/>
</svg>
