<svg width="150" height="150" viewBox="0 0 150 150" fill="none" xmlns="http://www.w3.org/2000/svg">
<path d="M131.625 73.875L130.625 72.5C128.875 70.375 126.812 68.6875 124.437 67.4375C121.25 65.625 117.625 64.6875 113.875 64.6875H36.0625C32.3125 64.6875 28.75 65.625 25.5 67.4375C23.0625 68.75 20.875 70.5625 19.0625 72.8125C15.5 77.375 13.8125 83 14.375 88.625L16.6875 117.812C17.5 126.625 18.5625 137.5 38.375 137.5H111.625C131.438 137.5 132.437 126.625 133.312 117.75L135.625 88.6875C136.188 83.4375 134.812 78.1875 131.625 73.875ZM89.9375 108.375H60C57.5625 108.375 55.625 106.375 55.625 104C55.625 101.625 57.5625 99.625 60 99.625H89.9375C92.375 99.625 94.3125 101.625 94.3125 104C94.3125 106.437 92.375 108.375 89.9375 108.375Z" fill="#E0E0E0"/>
<path d="M128.789 58.2502C128.802 58.6347 128.39 58.8952 128.048 58.7199C123.693 56.49 118.955 55.375 113.938 55.375H36.0625C31.0452 55.375 26.1394 56.5457 21.8716 58.7291C21.5331 58.9023 21.125 58.6601 21.125 58.2799V41.625C21.125 19.3125 27.9375 12.5 50.25 12.5H57.625C66.5625 12.5 69.375 15.375 73 20.0625L80.5 30.0625C82.0625 32.1875 82.125 32.3125 84.875 32.3125H99.75C121.002 32.3125 128.168 38.5051 128.789 58.2502Z" fill="#E0E0E0"/>
</svg>
