<svg width="151" height="150" viewBox="0 0 151 150" fill="none" xmlns="http://www.w3.org/2000/svg">
<path d="M135.428 56.4849C135.69 57.1258 135.208 57.8125 134.516 57.8125H14C13.4477 57.8125 13 57.3648 13 56.8125V40.125C13 24.875 25.375 12.5 40.625 12.5H55.125C65.3125 12.5 68.5 15.8125 72.5625 21.25L81.3125 32.875C83.25 35.4375 83.5 35.75 87.125 35.75H104.562C118.499 35.75 130.455 44.3105 135.428 56.4849Z" fill="#F2F2F2"/>
<path d="M137.878 68.1822C137.877 67.6312 137.429 67.1856 136.878 67.1856L14 67.1877C13.4477 67.1877 13 67.6354 13 68.1877V104.063C13 122.5 28 137.5 46.4375 137.5H104.562C123 137.5 138 122.5 138 104.063L137.878 68.1822ZM90.125 114.25C89.1875 115.125 88 115.625 86.8125 115.625C85.625 115.625 84.375 115.125 83.5 114.25L75.75 106.5L67.75 114.5C66.875 115.375 65.625 115.875 64.4375 115.875C63.25 115.875 62.0625 115.375 61.125 114.5C59.3125 112.688 59.3125 109.688 61.125 107.875L69.125 99.8752L61.375 92.1252C59.5625 90.3127 59.5625 87.3127 61.375 85.5002C63.25 83.6877 66.1875 83.6877 68 85.5002L75.75 93.2502L83.25 85.7502C85.0625 83.9377 88 83.9377 89.875 85.7502C91.6875 87.6252 91.6875 90.5627 89.875 92.3752L82.375 99.8752L90.125 107.625C91.9375 109.438 91.9375 112.438 90.125 114.25Z" fill="#F2F2F2"/>
</svg>
