<svg width="32" height="32" viewBox="0 0 32 32" fill="none" xmlns="http://www.w3.org/2000/svg">
<path d="M14.3333 6.18673L8.42668 3.26673C5.24001 1.70673 2.62668 3.29339 2.62668 6.78673V26.5734C2.62668 28.0934 3.89334 29.3334 5.44001 29.3334H15.3333C16.0667 29.3334 16.6667 28.7334 16.6667 28.0001V9.88006C16.6667 8.48006 15.6133 6.81339 14.3333 6.18673ZM11.96 18.3334H7.33334C6.78668 18.3334 6.33334 17.8801 6.33334 17.3334C6.33334 16.7867 6.78668 16.3334 7.33334 16.3334H11.96C12.5067 16.3334 12.96 16.7867 12.96 17.3334C12.96 17.8801 12.52 18.3334 11.96 18.3334ZM11.96 13.0001H7.33334C6.78668 13.0001 6.33334 12.5467 6.33334 12.0001C6.33334 11.4534 6.78668 11.0001 7.33334 11.0001H11.96C12.5067 11.0001 12.96 11.4534 12.96 12.0001C12.96 12.5467 12.52 13.0001 11.96 13.0001Z" fill="#FFBF00"/>
<path d="M29.3333 24.0533V26C29.3333 27.84 27.84 29.3333 26 29.3333H19.96C19.24 29.3333 18.6667 28.76 18.6667 28.04V25.16C20.0933 25.3333 21.6 24.92 22.68 24.0533C23.5867 24.7867 24.7467 25.2267 26.0133 25.2267C27.2533 25.2267 28.4133 24.7867 29.3333 24.0533Z" fill="#FFBF00"/>
<path d="M29.3333 20.0667V20.08C29.2267 21.8267 27.8 23.2267 26.0133 23.2267C24.16 23.2267 22.68 21.72 22.68 19.8933C22.68 21.9333 20.8 23.5733 18.6667 23.16V16C18.6667 15.1467 19.4533 14.5067 20.2933 14.6933L22.68 15.2267L23.32 15.3733L26.04 15.9867C26.6933 16.12 27.2933 16.3467 27.8133 16.68C27.8133 16.6933 27.8267 16.6933 27.8267 16.6933C27.96 16.7867 28.0933 16.8933 28.2133 17.0133C28.8267 17.6267 29.2267 18.52 29.32 19.8267C29.32 19.9067 29.3333 19.9867 29.3333 20.0667Z" fill="#FFBF00"/>
</svg>
