<svg width="16" height="17" viewBox="0 0 16 17" fill="none" xmlns="http://www.w3.org/2000/svg">
<path d="M12.7467 6.57991C12.4867 6.57991 12.28 6.78658 12.28 7.04658V8.09991C12.28 10.4599 10.36 12.3799 7.99999 12.3799C5.63999 12.3799 3.71999 10.4599 3.71999 8.09991V7.03991C3.71999 6.77991 3.51332 6.57324 3.25332 6.57324C2.99332 6.57324 2.78665 6.77991 2.78665 7.03991V8.09324C2.78665 10.8066 4.87332 13.0399 7.53332 13.2799V14.6999C7.53332 14.9599 7.73998 15.1666 7.99999 15.1666C8.25999 15.1666 8.46665 14.9599 8.46665 14.6999V13.2799C11.12 13.0466 13.2133 10.8066 13.2133 8.09324V7.03991C13.2067 6.78658 13 6.57991 12.7467 6.57991Z" fill="#BDBDBD"/>
<path d="M8.00001 1.83325C6.37334 1.83325 5.05334 3.15325 5.05334 4.77992V8.19325C5.05334 9.81992 6.37334 11.1399 8.00001 11.1399C9.62668 11.1399 10.9467 9.81992 10.9467 8.19325V4.77992C10.9467 3.15325 9.62668 1.83325 8.00001 1.83325ZM8.87335 6.46659C8.82668 6.63992 8.67334 6.75325 8.50001 6.75325C8.46668 6.75325 8.43335 6.74659 8.40001 6.73992C8.14001 6.66658 7.86668 6.66658 7.60668 6.73992C7.39334 6.79992 7.18668 6.67325 7.13334 6.46659C7.07334 6.25992 7.20001 6.04659 7.40668 5.99325C7.80001 5.88659 8.21334 5.88659 8.60668 5.99325C8.80668 6.04659 8.92668 6.25992 8.87335 6.46659ZM9.22668 5.17325C9.16668 5.33325 9.02001 5.42659 8.86001 5.42659C8.81334 5.42659 8.77334 5.41992 8.72668 5.40659C8.26001 5.23325 7.74001 5.23325 7.27334 5.40659C7.07334 5.47992 6.84668 5.37325 6.77334 5.17325C6.70001 4.97325 6.80668 4.74659 7.00668 4.67992C7.64668 4.44659 8.35334 4.44659 8.99334 4.67992C9.19334 4.75325 9.30001 4.97325 9.22668 5.17325Z" fill="#BDBDBD"/>
</svg>
