<svg width="32" height="32" viewBox="0 0 32 32" fill="none" xmlns="http://www.w3.org/2000/svg">
<path d="M25.0307 6.61641L25.0319 6.61935C25.3467 7.37288 25.0289 8.49056 23.6731 9.84641L22.0731 11.4464C21.5397 11.9798 21.2419 12.7122 21.2736 13.4572C21.2912 14.1267 21.5684 14.7489 22.0587 15.1791L23.6714 16.7918C23.6717 16.7921 23.6719 16.7924 23.6722 16.7927C24.9985 18.1323 25.308 19.2373 24.9919 19.9939C24.674 20.755 23.6658 21.3266 21.8 21.3266H7.86664H7.36664V21.8266V28.3333C7.36664 28.6038 7.13716 28.8333 6.86664 28.8333C6.59611 28.8333 6.36664 28.6038 6.36664 28.3333V3.66663C6.36664 3.3961 6.59611 3.16663 6.86664 3.16663C7.13716 3.16663 7.36664 3.3961 7.36664 3.66663V4.81329V5.31329H7.86664H21.8C23.7063 5.31329 24.7281 5.87884 25.0307 6.61641Z" fill="#FF4F4F"/>
<path d="M25.0307 6.61641L25.0319 6.61935C25.3467 7.37288 25.0289 8.49056 23.6731 9.84641L22.0731 11.4464C21.5397 11.9798 21.2419 12.7122 21.2736 13.4572C21.2912 14.1267 21.5684 14.7489 22.0587 15.1791L23.6714 16.7918C23.6717 16.7921 23.6719 16.7924 23.6722 16.7927C24.9985 18.1323 25.308 19.2373 24.9919 19.9939C24.674 20.755 23.6658 21.3266 21.8 21.3266H7.86664H7.36664V21.8266V28.3333C7.36664 28.6038 7.13716 28.8333 6.86664 28.8333C6.59611 28.8333 6.36664 28.6038 6.36664 28.3333V3.66663C6.36664 3.3961 6.59611 3.16663 6.86664 3.16663C7.13716 3.16663 7.36664 3.3961 7.36664 3.66663V4.81329V5.31329H7.86664H21.8C23.7063 5.31329 24.7281 5.87884 25.0307 6.61641Z" stroke="#6C727F"/>
<path d="M25.0307 6.61641L25.0319 6.61935C25.3467 7.37288 25.0289 8.49056 23.6731 9.84641L22.0731 11.4464C21.5397 11.9798 21.2419 12.7122 21.2736 13.4572C21.2912 14.1267 21.5684 14.7489 22.0587 15.1791L23.6714 16.7918C23.6717 16.7921 23.6719 16.7924 23.6722 16.7927C24.9985 18.1323 25.308 19.2373 24.9919 19.9939C24.674 20.755 23.6658 21.3266 21.8 21.3266H7.86664H7.36664V21.8266V28.3333C7.36664 28.6038 7.13716 28.8333 6.86664 28.8333C6.59611 28.8333 6.36664 28.6038 6.36664 28.3333V3.66663C6.36664 3.3961 6.59611 3.16663 6.86664 3.16663C7.13716 3.16663 7.36664 3.3961 7.36664 3.66663V4.81329V5.31329H7.86664H21.8C23.7063 5.31329 24.7281 5.87884 25.0307 6.61641Z" stroke="#FF4F4F"/>
<path d="M25.0307 6.61641L25.0319 6.61935C25.3467 7.37288 25.0289 8.49056 23.6731 9.84641L22.0731 11.4464C21.5397 11.9798 21.2419 12.7122 21.2736 13.4572C21.2912 14.1267 21.5684 14.7489 22.0587 15.1791L23.6714 16.7918C23.6717 16.7921 23.6719 16.7924 23.6722 16.7927C24.9985 18.1323 25.308 19.2373 24.9919 19.9939C24.674 20.755 23.6658 21.3266 21.8 21.3266H7.86664H7.36664V21.8266V28.3333C7.36664 28.6038 7.13716 28.8333 6.86664 28.8333C6.59611 28.8333 6.36664 28.6038 6.36664 28.3333V3.66663C6.36664 3.3961 6.59611 3.16663 6.86664 3.16663C7.13716 3.16663 7.36664 3.3961 7.36664 3.66663V4.81329V5.31329H7.86664H21.8C23.7063 5.31329 24.7281 5.87884 25.0307 6.61641Z" stroke="#FF4F4F"/>
<path d="M25.0307 6.61641L25.0319 6.61935C25.3467 7.37288 25.0289 8.49056 23.6731 9.84641L22.0731 11.4464C21.5397 11.9798 21.2419 12.7122 21.2736 13.4572C21.2912 14.1267 21.5684 14.7489 22.0587 15.1791L23.6714 16.7918C23.6717 16.7921 23.6719 16.7924 23.6722 16.7927C24.9985 18.1323 25.308 19.2373 24.9919 19.9939C24.674 20.755 23.6658 21.3266 21.8 21.3266H7.86664H7.36664V21.8266V28.3333C7.36664 28.6038 7.13716 28.8333 6.86664 28.8333C6.59611 28.8333 6.36664 28.6038 6.36664 28.3333V3.66663C6.36664 3.3961 6.59611 3.16663 6.86664 3.16663C7.13716 3.16663 7.36664 3.3961 7.36664 3.66663V4.81329V5.31329H7.86664H21.8C23.7063 5.31329 24.7281 5.87884 25.0307 6.61641Z" stroke="#FF4F4F"/>
<path d="M25.0307 6.61641L25.0319 6.61935C25.3467 7.37288 25.0289 8.49056 23.6731 9.84641L22.0731 11.4464C21.5397 11.9798 21.2419 12.7122 21.2736 13.4572C21.2912 14.1267 21.5684 14.7489 22.0587 15.1791L23.6714 16.7918C23.6717 16.7921 23.6719 16.7924 23.6722 16.7927C24.9985 18.1323 25.308 19.2373 24.9919 19.9939C24.674 20.755 23.6658 21.3266 21.8 21.3266H7.86664H7.36664V21.8266V28.3333C7.36664 28.6038 7.13716 28.8333 6.86664 28.8333C6.59611 28.8333 6.36664 28.6038 6.36664 28.3333V3.66663C6.36664 3.3961 6.59611 3.16663 6.86664 3.16663C7.13716 3.16663 7.36664 3.3961 7.36664 3.66663V4.81329V5.31329H7.86664H21.8C23.7063 5.31329 24.7281 5.87884 25.0307 6.61641Z" stroke="#FF4F4F"/>
</svg>
