<svg width="32" height="32" viewBox="0 0 32 32" fill="none" xmlns="http://www.w3.org/2000/svg">
<path d="M23.3949 9.85879C23.2873 9.84701 23.1793 9.84701 23.0717 9.85879C21.2935 9.78163 19.8867 8.31835 19.8867 6.51996C19.8867 4.67497 21.3839 3.16663 23.24 3.16663C25.0845 3.16663 26.5925 4.66305 26.5933 6.51839C26.5809 8.31907 25.1721 9.78166 23.3949 9.85879Z" fill="#5551FF"/>
<path d="M23.3949 9.85879C23.2873 9.84701 23.1793 9.84701 23.0717 9.85879C21.2935 9.78163 19.8867 8.31835 19.8867 6.51996C19.8867 4.67497 21.3839 3.16663 23.24 3.16663C25.0845 3.16663 26.5925 4.66305 26.5933 6.51839C26.5809 8.31907 25.1721 9.78166 23.3949 9.85879Z" stroke="#6C727F"/>
<path d="M23.3949 9.85879C23.2873 9.84701 23.1793 9.84701 23.0717 9.85879C21.2935 9.78163 19.8867 8.31835 19.8867 6.51996C19.8867 4.67497 21.3839 3.16663 23.24 3.16663C25.0845 3.16663 26.5925 4.66305 26.5933 6.51839C26.5809 8.31907 25.1721 9.78166 23.3949 9.85879Z" stroke="#5551FF"/>
<path d="M23.3949 9.85879C23.2873 9.84701 23.1793 9.84701 23.0717 9.85879C21.2935 9.78163 19.8867 8.31835 19.8867 6.51996C19.8867 4.67497 21.3839 3.16663 23.24 3.16663C25.0845 3.16663 26.5925 4.66305 26.5933 6.51839C26.5809 8.31907 25.1721 9.78166 23.3949 9.85879Z" stroke="#5551FF"/>
<path d="M23.3949 9.85879C23.2873 9.84701 23.1793 9.84701 23.0717 9.85879C21.2935 9.78163 19.8867 8.31835 19.8867 6.51996C19.8867 4.67497 21.3839 3.16663 23.24 3.16663C25.0845 3.16663 26.5925 4.66305 26.5933 6.51839C26.5809 8.31907 25.1721 9.78166 23.3949 9.85879Z" stroke="#5551FF"/>
<path d="M23.3949 9.85879C23.2873 9.84701 23.1793 9.84701 23.0717 9.85879C21.2935 9.78163 19.8867 8.31835 19.8867 6.51996C19.8867 4.67497 21.3839 3.16663 23.24 3.16663C25.0845 3.16663 26.5925 4.66305 26.5933 6.51839C26.5809 8.31907 25.1721 9.78166 23.3949 9.85879Z" stroke="#5551FF"/>
<path d="M27.72 19.6C26.2267 20.6 24.1334 20.9734 22.2 20.72C22.7067 19.6267 22.9734 18.4134 22.9867 17.1334C22.9867 15.8001 22.6934 14.5334 22.1334 13.4267C24.1067 13.16 26.2 13.5334 27.7067 14.5334C29.8134 15.92 29.8134 18.2 27.72 19.6Z" fill="#5551FF"/>
<path d="M8.58667 10.36C8.68 10.3466 8.77334 10.3466 8.86667 10.36C10.9333 10.2933 12.5733 8.59996 12.5733 6.51996C12.5733 4.38663 10.8533 2.66663 8.72 2.66663C6.6 2.66663 4.88 4.38663 4.88 6.51996C4.88 8.59996 6.52 10.2933 8.58667 10.36Z" fill="#5551FF"/>
<path d="M8.73331 17.1334C8.73331 18.4267 9.01331 19.6534 9.51997 20.7601C7.63997 20.9601 5.67997 20.5601 4.23997 19.6134C2.13331 18.2134 2.13331 15.9334 4.23997 14.5334C5.66664 13.5734 7.67997 13.1867 9.57331 13.4001C9.02664 14.5201 8.73331 15.7867 8.73331 17.1334Z" fill="#5551FF"/>
<path d="M16.16 21.16C16.0534 21.1467 15.9334 21.1467 15.8134 21.16C13.36 21.08 11.4 19.0667 11.4 16.5867C11.4134 14.0533 13.4534 12 16 12C18.5334 12 20.5867 14.0533 20.5867 16.5867C20.5734 19.0667 18.6267 21.08 16.16 21.16Z" fill="#5551FF"/>
<path d="M11.8267 23.92C9.81332 25.2667 9.81332 27.48 11.8267 28.8134C14.12 30.3467 17.88 30.3467 20.1733 28.8134C22.1867 27.4667 22.1867 25.2534 20.1733 23.92C17.8933 22.3867 14.1333 22.3867 11.8267 23.92Z" fill="#5551FF"/>
</svg>
