<svg width="32" height="32" viewBox="0 0 32 32" fill="none" xmlns="http://www.w3.org/2000/svg">
<path d="M10.6667 3.16663H21.3333C23.5714 3.16663 25.0877 3.80355 26.0503 4.84018C27.0191 5.88353 27.5 7.40994 27.5 9.33329V22.6666C27.5 24.59 27.0191 26.1164 26.0503 27.1597C25.0877 28.1964 23.5714 28.8333 21.3333 28.8333H10.6667C8.42863 28.8333 6.91232 28.1964 5.94973 27.1597C4.98091 26.1164 4.5 24.59 4.5 22.6666V9.33329C4.5 7.40994 4.98091 5.88353 5.94973 4.84018C6.91232 3.80355 8.42863 3.16663 10.6667 3.16663ZM16 15.8333H10.6667C9.84386 15.8333 9.16667 16.5105 9.16667 17.3333C9.16667 18.1561 9.84386 18.8333 10.6667 18.8333H16C16.8228 18.8333 17.5 18.1561 17.5 17.3333C17.5 16.5105 16.8228 15.8333 16 15.8333ZM10.6667 24.1666H21.3333C22.1561 24.1666 22.8333 23.4894 22.8333 22.6666C22.8333 21.8438 22.1561 21.1666 21.3333 21.1666H10.6667C9.84386 21.1666 9.16667 21.8438 9.16667 22.6666C9.16667 23.4894 9.84386 24.1666 10.6667 24.1666ZM22 12.8333H24.6667C25.4895 12.8333 26.1667 12.1561 26.1667 11.3333C26.1667 10.5105 25.4895 9.83329 24.6667 9.83329H22C21.3561 9.83329 20.8333 9.31048 20.8333 8.66663V5.99996C20.8333 5.17715 20.1561 4.49996 19.3333 4.49996C18.5105 4.49996 17.8333 5.17715 17.8333 5.99996V8.66663C17.8333 10.9694 19.6972 12.8333 22 12.8333Z" fill="#0864ED"/>
<path d="M10.6667 3.16663H21.3333C23.5714 3.16663 25.0877 3.80355 26.0503 4.84018C27.0191 5.88353 27.5 7.40994 27.5 9.33329V22.6666C27.5 24.59 27.0191 26.1164 26.0503 27.1597C25.0877 28.1964 23.5714 28.8333 21.3333 28.8333H10.6667C8.42863 28.8333 6.91232 28.1964 5.94973 27.1597C4.98091 26.1164 4.5 24.59 4.5 22.6666V9.33329C4.5 7.40994 4.98091 5.88353 5.94973 4.84018C6.91232 3.80355 8.42863 3.16663 10.6667 3.16663ZM16 15.8333H10.6667C9.84386 15.8333 9.16667 16.5105 9.16667 17.3333C9.16667 18.1561 9.84386 18.8333 10.6667 18.8333H16C16.8228 18.8333 17.5 18.1561 17.5 17.3333C17.5 16.5105 16.8228 15.8333 16 15.8333ZM10.6667 24.1666H21.3333C22.1561 24.1666 22.8333 23.4894 22.8333 22.6666C22.8333 21.8438 22.1561 21.1666 21.3333 21.1666H10.6667C9.84386 21.1666 9.16667 21.8438 9.16667 22.6666C9.16667 23.4894 9.84386 24.1666 10.6667 24.1666ZM22 12.8333H24.6667C25.4895 12.8333 26.1667 12.1561 26.1667 11.3333C26.1667 10.5105 25.4895 9.83329 24.6667 9.83329H22C21.3561 9.83329 20.8333 9.31048 20.8333 8.66663V5.99996C20.8333 5.17715 20.1561 4.49996 19.3333 4.49996C18.5105 4.49996 17.8333 5.17715 17.8333 5.99996V8.66663C17.8333 10.9694 19.6972 12.8333 22 12.8333Z" stroke="#6C727F"/>
<path d="M10.6667 3.16663H21.3333C23.5714 3.16663 25.0877 3.80355 26.0503 4.84018C27.0191 5.88353 27.5 7.40994 27.5 9.33329V22.6666C27.5 24.59 27.0191 26.1164 26.0503 27.1597C25.0877 28.1964 23.5714 28.8333 21.3333 28.8333H10.6667C8.42863 28.8333 6.91232 28.1964 5.94973 27.1597C4.98091 26.1164 4.5 24.59 4.5 22.6666V9.33329C4.5 7.40994 4.98091 5.88353 5.94973 4.84018C6.91232 3.80355 8.42863 3.16663 10.6667 3.16663ZM16 15.8333H10.6667C9.84386 15.8333 9.16667 16.5105 9.16667 17.3333C9.16667 18.1561 9.84386 18.8333 10.6667 18.8333H16C16.8228 18.8333 17.5 18.1561 17.5 17.3333C17.5 16.5105 16.8228 15.8333 16 15.8333ZM10.6667 24.1666H21.3333C22.1561 24.1666 22.8333 23.4894 22.8333 22.6666C22.8333 21.8438 22.1561 21.1666 21.3333 21.1666H10.6667C9.84386 21.1666 9.16667 21.8438 9.16667 22.6666C9.16667 23.4894 9.84386 24.1666 10.6667 24.1666ZM22 12.8333H24.6667C25.4895 12.8333 26.1667 12.1561 26.1667 11.3333C26.1667 10.5105 25.4895 9.83329 24.6667 9.83329H22C21.3561 9.83329 20.8333 9.31048 20.8333 8.66663V5.99996C20.8333 5.17715 20.1561 4.49996 19.3333 4.49996C18.5105 4.49996 17.8333 5.17715 17.8333 5.99996V8.66663C17.8333 10.9694 19.6972 12.8333 22 12.8333Z" stroke="#0864ED"/>
<path d="M10.6667 3.16663H21.3333C23.5714 3.16663 25.0877 3.80355 26.0503 4.84018C27.0191 5.88353 27.5 7.40994 27.5 9.33329V22.6666C27.5 24.59 27.0191 26.1164 26.0503 27.1597C25.0877 28.1964 23.5714 28.8333 21.3333 28.8333H10.6667C8.42863 28.8333 6.91232 28.1964 5.94973 27.1597C4.98091 26.1164 4.5 24.59 4.5 22.6666V9.33329C4.5 7.40994 4.98091 5.88353 5.94973 4.84018C6.91232 3.80355 8.42863 3.16663 10.6667 3.16663ZM16 15.8333H10.6667C9.84386 15.8333 9.16667 16.5105 9.16667 17.3333C9.16667 18.1561 9.84386 18.8333 10.6667 18.8333H16C16.8228 18.8333 17.5 18.1561 17.5 17.3333C17.5 16.5105 16.8228 15.8333 16 15.8333ZM10.6667 24.1666H21.3333C22.1561 24.1666 22.8333 23.4894 22.8333 22.6666C22.8333 21.8438 22.1561 21.1666 21.3333 21.1666H10.6667C9.84386 21.1666 9.16667 21.8438 9.16667 22.6666C9.16667 23.4894 9.84386 24.1666 10.6667 24.1666ZM22 12.8333H24.6667C25.4895 12.8333 26.1667 12.1561 26.1667 11.3333C26.1667 10.5105 25.4895 9.83329 24.6667 9.83329H22C21.3561 9.83329 20.8333 9.31048 20.8333 8.66663V5.99996C20.8333 5.17715 20.1561 4.49996 19.3333 4.49996C18.5105 4.49996 17.8333 5.17715 17.8333 5.99996V8.66663C17.8333 10.9694 19.6972 12.8333 22 12.8333Z" stroke="#0864ED"/>
<path d="M10.6667 3.16663H21.3333C23.5714 3.16663 25.0877 3.80355 26.0503 4.84018C27.0191 5.88353 27.5 7.40994 27.5 9.33329V22.6666C27.5 24.59 27.0191 26.1164 26.0503 27.1597C25.0877 28.1964 23.5714 28.8333 21.3333 28.8333H10.6667C8.42863 28.8333 6.91232 28.1964 5.94973 27.1597C4.98091 26.1164 4.5 24.59 4.5 22.6666V9.33329C4.5 7.40994 4.98091 5.88353 5.94973 4.84018C6.91232 3.80355 8.42863 3.16663 10.6667 3.16663ZM16 15.8333H10.6667C9.84386 15.8333 9.16667 16.5105 9.16667 17.3333C9.16667 18.1561 9.84386 18.8333 10.6667 18.8333H16C16.8228 18.8333 17.5 18.1561 17.5 17.3333C17.5 16.5105 16.8228 15.8333 16 15.8333ZM10.6667 24.1666H21.3333C22.1561 24.1666 22.8333 23.4894 22.8333 22.6666C22.8333 21.8438 22.1561 21.1666 21.3333 21.1666H10.6667C9.84386 21.1666 9.16667 21.8438 9.16667 22.6666C9.16667 23.4894 9.84386 24.1666 10.6667 24.1666ZM22 12.8333H24.6667C25.4895 12.8333 26.1667 12.1561 26.1667 11.3333C26.1667 10.5105 25.4895 9.83329 24.6667 9.83329H22C21.3561 9.83329 20.8333 9.31048 20.8333 8.66663V5.99996C20.8333 5.17715 20.1561 4.49996 19.3333 4.49996C18.5105 4.49996 17.8333 5.17715 17.8333 5.99996V8.66663C17.8333 10.9694 19.6972 12.8333 22 12.8333Z" stroke="#0864ED"/>
<path d="M10.6667 3.16663H21.3333C23.5714 3.16663 25.0877 3.80355 26.0503 4.84018C27.0191 5.88353 27.5 7.40994 27.5 9.33329V22.6666C27.5 24.59 27.0191 26.1164 26.0503 27.1597C25.0877 28.1964 23.5714 28.8333 21.3333 28.8333H10.6667C8.42863 28.8333 6.91232 28.1964 5.94973 27.1597C4.98091 26.1164 4.5 24.59 4.5 22.6666V9.33329C4.5 7.40994 4.98091 5.88353 5.94973 4.84018C6.91232 3.80355 8.42863 3.16663 10.6667 3.16663ZM16 15.8333H10.6667C9.84386 15.8333 9.16667 16.5105 9.16667 17.3333C9.16667 18.1561 9.84386 18.8333 10.6667 18.8333H16C16.8228 18.8333 17.5 18.1561 17.5 17.3333C17.5 16.5105 16.8228 15.8333 16 15.8333ZM10.6667 24.1666H21.3333C22.1561 24.1666 22.8333 23.4894 22.8333 22.6666C22.8333 21.8438 22.1561 21.1666 21.3333 21.1666H10.6667C9.84386 21.1666 9.16667 21.8438 9.16667 22.6666C9.16667 23.4894 9.84386 24.1666 10.6667 24.1666ZM22 12.8333H24.6667C25.4895 12.8333 26.1667 12.1561 26.1667 11.3333C26.1667 10.5105 25.4895 9.83329 24.6667 9.83329H22C21.3561 9.83329 20.8333 9.31048 20.8333 8.66663V5.99996C20.8333 5.17715 20.1561 4.49996 19.3333 4.49996C18.5105 4.49996 17.8333 5.17715 17.8333 5.99996V8.66663C17.8333 10.9694 19.6972 12.8333 22 12.8333Z" stroke="#0864ED"/>
</svg>
