<svg width="16" height="16" viewBox="0 0 16 16" fill="none" xmlns="http://www.w3.org/2000/svg">
<path d="M3.82667 10.6663C3.9 10.3397 3.76667 9.87301 3.53334 9.63968L1.91334 8.01967C1.40667 7.51301 1.20667 6.97301 1.35334 6.50634C1.50667 6.03967 1.98 5.71967 2.68667 5.59967L4.76667 5.25301C5.06667 5.19967 5.43334 4.93301 5.57334 4.65967L6.72 2.35967C7.05334 1.69967 7.50667 1.33301 8 1.33301C8.49334 1.33301 8.94667 1.69967 9.28 2.35967L10.4267 4.65967C10.5133 4.83301 10.6933 4.99967 10.8867 5.11301L3.70667 12.293C3.61334 12.3863 3.45334 12.2997 3.48 12.1663L3.82667 10.6663Z" fill="#FFAC33"/>
<path d="M12.4667 9.64026C12.2267 9.88026 12.0933 10.3403 12.1733 10.6669L12.6333 12.6736C12.8267 13.5069 12.7067 14.1336 12.2933 14.4336C12.1267 14.5536 11.9267 14.6136 11.6933 14.6136C11.3533 14.6136 10.9533 14.4869 10.5133 14.2269L8.56 13.0669C8.25333 12.8869 7.74667 12.8869 7.44 13.0669L5.48667 14.2269C4.74667 14.6603 4.11334 14.7336 3.70667 14.4336C3.55334 14.3203 3.44 14.1669 3.36667 13.9669L11.4733 5.86026C11.78 5.55359 12.2133 5.41359 12.6333 5.48692L13.3067 5.60026C14.0133 5.72026 14.4867 6.04026 14.64 6.50692C14.7867 6.97359 14.5867 7.51359 14.08 8.02026L12.4667 9.64026Z" fill="#FFAC33"/>
</svg>
