<svg width="32" height="32" viewBox="0 0 32 32" fill="none" xmlns="http://www.w3.org/2000/svg">
<path d="M25.0985 18.935L25.0986 18.935L25.0977 18.9252C25.0731 18.6716 25.1711 18.4294 25.3402 18.2602L25.3403 18.2604L25.3496 18.2506C25.4871 18.1055 25.685 18.02 25.92 18.02H27.9226C27.9873 18.0237 28.0299 18.0483 28.0556 18.0744C28.0826 18.1018 28.1 18.1394 28.1 18.1867V19.52C28.1 19.6056 28.0391 19.6801 27.9353 19.6867H26C25.5149 19.6867 25.1289 19.3301 25.0985 18.935Z" fill="#B61EEC"/>
<path d="M25.0985 18.935L25.0986 18.935L25.0977 18.9252C25.0731 18.6716 25.1711 18.4294 25.3402 18.2602L25.3403 18.2604L25.3496 18.2506C25.4871 18.1055 25.685 18.02 25.92 18.02H27.9226C27.9873 18.0237 28.0299 18.0483 28.0556 18.0744C28.0826 18.1018 28.1 18.1394 28.1 18.1867V19.52C28.1 19.6056 28.0391 19.6801 27.9353 19.6867H26C25.5149 19.6867 25.1289 19.3301 25.0985 18.935Z" stroke="#6C727F"/>
<path d="M25.0985 18.935L25.0986 18.935L25.0977 18.9252C25.0731 18.6716 25.1711 18.4294 25.3402 18.2602L25.3403 18.2604L25.3496 18.2506C25.4871 18.1055 25.685 18.02 25.92 18.02H27.9226C27.9873 18.0237 28.0299 18.0483 28.0556 18.0744C28.0826 18.1018 28.1 18.1394 28.1 18.1867V19.52C28.1 19.6056 28.0391 19.6801 27.9353 19.6867H26C25.5149 19.6867 25.1289 19.3301 25.0985 18.935Z" stroke="#B61EEC"/>
<path d="M25.0985 18.935L25.0986 18.935L25.0977 18.9252C25.0731 18.6716 25.1711 18.4294 25.3402 18.2602L25.3403 18.2604L25.3496 18.2506C25.4871 18.1055 25.685 18.02 25.92 18.02H27.9226C27.9873 18.0237 28.0299 18.0483 28.0556 18.0744C28.0826 18.1018 28.1 18.1394 28.1 18.1867V19.52C28.1 19.6056 28.0391 19.6801 27.9353 19.6867H26C25.5149 19.6867 25.1289 19.3301 25.0985 18.935Z" stroke="#B61EEC"/>
<path d="M25.0985 18.935L25.0986 18.935L25.0977 18.9252C25.0731 18.6716 25.1711 18.4294 25.3402 18.2602L25.3403 18.2604L25.3496 18.2506C25.4871 18.1055 25.685 18.02 25.92 18.02H27.9226C27.9873 18.0237 28.0299 18.0483 28.0556 18.0744C28.0826 18.1018 28.1 18.1394 28.1 18.1867V19.52C28.1 19.6056 28.0391 19.6801 27.9353 19.6867H26C25.5149 19.6867 25.1289 19.3301 25.0985 18.935Z" stroke="#B61EEC"/>
<path d="M25.0985 18.935L25.0986 18.935L25.0977 18.9252C25.0731 18.6716 25.1711 18.4294 25.3402 18.2602L25.3403 18.2604L25.3496 18.2506C25.4871 18.1055 25.685 18.02 25.92 18.02H27.9226C27.9873 18.0237 28.0299 18.0483 28.0556 18.0744C28.0826 18.1018 28.1 18.1394 28.1 18.1867V19.52C28.1 19.6056 28.0391 19.6801 27.9353 19.6867H26C25.5149 19.6867 25.1289 19.3301 25.0985 18.935Z" stroke="#B61EEC"/>
<path d="M23.9867 16.92C23.32 17.5733 23 18.5466 23.2667 19.56C23.6133 20.8 24.8267 21.5866 26.1067 21.5866H27.2667C28 21.5866 28.6 22.1866 28.6 22.92V23.1733C28.6 25.9333 26.3467 28.1866 23.5867 28.1866H8.28C5.52 28.1866 3.26666 25.9333 3.26666 23.1733V14.2C3.26666 12.56 4.05333 11.1066 5.26666 10.2C6.10666 9.55998 7.14666 9.18665 8.28 9.18665H23.5867C26.3467 9.18665 28.6 11.44 28.6 14.2V14.7866C28.6 15.52 28 16.12 27.2667 16.12H25.9067C25.16 16.12 24.48 16.4133 23.9867 16.92Z" fill="#B61EEC"/>
<path d="M21.6 6.42663C21.96 6.78663 21.6533 7.34663 21.1467 7.34663L10.9067 7.33329C10.32 7.33329 10.0133 6.61329 10.44 6.19996L12.6 4.02663C14.4267 2.21329 17.3867 2.21329 19.2133 4.02663L21.5467 6.38663C21.56 6.39996 21.5867 6.41329 21.6 6.42663Z" fill="#B61EEC"/>
</svg>
